<?xml version="1.0" encoding="UTF-8" standalone="no"?>
<svg
   xmlns:dc="http://purl.org/dc/elements/1.1/"
   xmlns:cc="http://creativecommons.org/ns#"
   xmlns:rdf="http://www.w3.org/1999/02/22-rdf-syntax-ns#"
   xmlns:svg="http://www.w3.org/2000/svg"
   xmlns="http://www.w3.org/2000/svg"
   xmlns:sodipodi="http://sodipodi.sourceforge.net/DTD/sodipodi-0.dtd"
   xmlns:inkscape="http://www.inkscape.org/namespaces/inkscape"
   inkscape:version="1.0 (4035a4fb49, 2020-05-01)"
   sodipodi:docname="favicon.svg"
   xml:space="preserve"
   enable-background="new 0 0 529.943 530.689"
   viewBox="0 0 529.943 530.689"
   height="530.689px"
   width="529.943px"
   y="0px"
   x="0px"
   id="svg5846"
   version="1.1"><metadata
   id="metadata11"><rdf:RDF><cc:Work
       rdf:about=""><dc:format>image/svg+xml</dc:format><dc:type
         rdf:resource="http://purl.org/dc/dcmitype/StillImage" /></cc:Work></rdf:RDF></metadata><defs
   id="defs9" /><sodipodi:namedview
   inkscape:current-layer="svg5846"
   inkscape:window-maximized="1"
   inkscape:window-y="-8"
   inkscape:window-x="-8"
   inkscape:cy="410.13563"
   inkscape:cx="37.339848"
   inkscape:zoom="0.64940952"
   showgrid="false"
   id="namedview7"
   inkscape:window-height="1017"
   inkscape:window-width="1920"
   inkscape:pageshadow="2"
   inkscape:pageopacity="0"
   guidetolerance="10"
   gridtolerance="10"
   objecttolerance="10"
   borderopacity="1"
   bordercolor="#666666"
   pagecolor="#ffffff" />

<g
   style="font-style:normal;font-weight:normal;font-size:434.631px;line-height:0.65;font-family:sans-serif;fill:#075a63;fill-opacity:1;stroke:none;stroke-width:10.8657"
   id="text15"
   transform="scale(1.3417849,0.74527593)"
   aria-label="BI
IF"><path
     id="path842"
     style="font-style:normal;font-variant:normal;font-weight:bold;font-stretch:normal;font-family:'Trebuchet MS';-inkscape-font-specification:'Trebuchet MS Bold';fill:#075a63;fill-opacity:1;stroke-width:10.8657"
     d="M 131.21985,374.68924 H 36.144311 V 63.995977 q 62.817764,-2.97111 88.072199,-2.97111 48.38666,0 75.5511,20.797773 27.37666,20.58555 27.37666,58.99776 0,36.92666 -39.04888,58.3611 57.93665,20.16111 57.93665,83.19109 0,42.44444 -32.04555,67.48666 -32.04555,24.82999 -82.76664,24.82999 z M 91.322076,108.13819 v 74.48998 q 12.733334,0.84889 26.739994,0.84889 53.90443,0 53.90443,-40.53443 0,-35.86555 -49.02332,-35.86555 -12.94555,0 -31.621104,1.06111 z m 0,117.57108 v 102.71554 q 16.765554,1.48555 27.164434,1.48555 36.92666,0 53.47999,-12.52111 16.76555,-12.52111 16.76555,-41.59554 0,-26.52778 -15.49221,-38.62444 -15.49222,-12.09666 -54.11666,-12.09666 -8.06444,0 -27.801104,0.63666 z" /><path
     id="path844"
     style="font-style:normal;font-variant:normal;font-weight:bold;font-stretch:normal;font-family:'Trebuchet MS';-inkscape-font-specification:'Trebuchet MS Bold';fill:#075a63;fill-opacity:1;stroke-width:10.8657"
     d="M 296.11646,374.68924 V 63.783755 h 55.17777 V 374.68924 Z" /><path
     id="path846"
     style="font-style:normal;font-variant:normal;font-weight:bold;font-stretch:normal;font-family:'Trebuchet MS';-inkscape-font-specification:'Trebuchet MS Bold';fill:#075a63;fill-opacity:1;stroke-width:10.8657"
     d="M 37.205422,659.34946 V 348.44398 h 55.177765 v 310.90548 z" /><path
     sodipodi:nodetypes="ccccccccccc"
     id="path848"
     style="font-style:normal;font-variant:normal;font-weight:bold;font-stretch:normal;font-family:'Trebuchet MS';-inkscape-font-specification:'Trebuchet MS Bold';fill:#075a63;fill-opacity:1;stroke-width:10.8657"
     d="m 212.71316,397.4673 v 72.7922 h 109.29442 v 46.90111 H 212.71316 V 659.34946 H 157.53539 V 348.44398 h 193.74735 v 49.02332 z" /></g></svg>
